<svg xmlns="http://www.w3.org/2000/svg" xmlns:xlink="http://www.w3.org/1999/xlink" width="1200" height="500" viewBox="0 0 1200 500">
  <defs>
    <clipPath id="clip-path">
      <rect id="Rectangle_21" data-name="Rectangle 21" width="1067" height="350" transform="translate(0 -0.283)"/>
    </clipPath>
    <clipPath id="clip-Artboard_1">
      <rect width="1200" height="500"/>
    </clipPath>
  </defs>
  <g id="Artboard_1" data-name="Artboard – 1" clip-path="url(#clip-Artboard_1)">
    <rect width="1200" height="500" fill="rgba(255,255,255,0)"/>
    <g id="Logo" transform="translate(67 95.283)" clip-path="url(#clip-path)">
      <rect id="Rectangle_20" data-name="Rectangle 20" width="1067" height="350" transform="translate(0 -0.283)" fill="rgba(255,255,255,0)"/>
      <g id="logo-2" data-name="logo" transform="translate(122.697 47.419)">
        <text id="CARE_BD" data-name="CARE  BD" transform="translate(0.303 174.298)" fill="#ff6a00" font-size="184" font-family="ArialRoundedMTBold, Arial Rounded MT" letter-spacing="-0.05em"><tspan x="0" y="0" xml:space="preserve">CARE  BD</tspan></text>
        <path id="Shape" d="M37.915,4.739A11.89,11.89,0,0,0,21.089,4.25l-.52.492a11.9,11.9,0,1,0-17.32,16.33l1.172,1.245a3.473,3.473,0,0,0,3.632,4.822A3.457,3.457,0,0,0,11.9,31.218,3.456,3.456,0,0,0,15.751,35.3a3.485,3.485,0,0,0,5.815,3.165c3.912-3.7,3.794-3.511,4.162-4.134a3.465,3.465,0,0,0,4.965-3.552,3.467,3.467,0,0,0,4.077-3.853A3.484,3.484,0,0,0,37.9,21.069,11.868,11.868,0,0,0,37.915,4.74ZM6.085,25.147a2.122,2.122,0,0,1,.087-3l3.566-3.37a2.118,2.118,0,0,1,2.9,3.082L9.075,25.233a2.12,2.12,0,0,1-2.994-.087Zm3.849,4.079a2.12,2.12,0,0,1,.087-3l3.567-3.369a2.118,2.118,0,1,1,2.9,3.082l-3.569,3.367a2.12,2.12,0,0,1-2.993-.09ZM13.783,33.3a2.121,2.121,0,0,1,.087-2.995l3.567-3.369a2.118,2.118,0,0,1,2.9,3.076l-3.565,3.368a2.118,2.118,0,0,1-2.995-.085Zm6.843,4.165a2.118,2.118,0,1,1-2.9-3.082l3.561-3.368a2.118,2.118,0,0,1,2.9,3.082ZM36.851,25.041a2.112,2.112,0,0,1-2.993-.087l-9.142-9.686a.686.686,0,1,0-1,.942l9.144,9.684A2.119,2.119,0,1,1,29.779,28.8l-9.141-9.686a.686.686,0,0,0-1,.942l9.14,9.684a2.115,2.115,0,0,1-2.6,3.283,3.463,3.463,0,0,0-3.341-3.96c-.755-.02-.48.266-.461-.489a3.488,3.488,0,0,0-3.388-3.59c-.755-.024-.484.274-.461-.489a3.489,3.489,0,0,0-3.388-3.59c-.759-.021-.484.28-.461-.489A3.494,3.494,0,0,0,8.8,17.781c-4.9,4.63-3.213,3.034-3.578,3.379L4.246,20.13A10.53,10.53,0,0,1,19.569,5.682l-5.619,5.306a2.845,2.845,0,0,0-.875,1.946c-.069,2.817,4.122,4.591,6.683,2.168l5.12-4.832a.686.686,0,0,1,.97.027c1.347,1.431,9.8,10.382,11.088,11.751a2.117,2.117,0,0,1-.087,2.994Zm.119-4.96L26.847,9.357a2.058,2.058,0,0,0-2.909-.084l-5.121,4.834a2.813,2.813,0,0,1-3.984-.123,1.412,1.412,0,0,1,.059-2l7.137-6.739A10.531,10.531,0,0,1,36.966,20.081Z" transform="translate(515.659 134.377)" fill="#ff6a00" stroke="#ff6a00" stroke-width="1"/>
      </g>
    </g>
  </g>
</svg>
