<svg xmlns="http://www.w3.org/2000/svg" xmlns:xlink="http://www.w3.org/1999/xlink" width="1800" height="590" viewBox="0 0 1800 590">
  <defs>
    <clipPath id="clip-Logo">
      <rect width="1800" height="590"/>
    </clipPath>
  </defs>
  <g id="Logo" clip-path="url(#clip-Logo)">
    <rect width="1800" height="590" fill="rgba(255,255,255,0)"/>
    <g id="logo-2" data-name="logo" transform="translate(207 80)">
      <text id="CARE_BD" data-name="CARE  BD" transform="translate(0 294)" fill="#ff6a00" font-size="311" font-family="ArialRoundedMTBold, Arial Rounded MT" letter-spacing="-0.05em"><tspan x="0" y="0" xml:space="preserve">CARE  BD</tspan></text>
      <path id="Shape" d="M63.962,7.309a20.059,20.059,0,0,0-28.388-.825l-.878.83a20.08,20.08,0,0,0-29.22,27.55l1.978,2.1a5.86,5.86,0,0,0,6.128,8.135,5.832,5.832,0,0,0,6.494,6.882,5.831,5.831,0,0,0,6.493,6.88A5.879,5.879,0,0,0,36.38,64.2c6.6-6.236,6.4-5.924,7.022-6.975a5.845,5.845,0,0,0,8.377-5.993,5.849,5.849,0,0,0,6.878-6.5,5.878,5.878,0,0,0,5.282-9.873,20.022,20.022,0,0,0,.023-27.549Zm-53.7,34.43a3.58,3.58,0,0,1,.146-5.053L16.424,31a3.574,3.574,0,0,1,4.9,5.2l-6.018,5.683a3.576,3.576,0,0,1-5.051-.146Zm6.494,6.882a3.577,3.577,0,0,1,.146-5.053l6.018-5.683a3.573,3.573,0,0,1,4.9,5.2L21.8,48.766a3.577,3.577,0,0,1-5.049-.152Zm6.493,6.88a3.578,3.578,0,0,1,.147-5.052l6.018-5.683a3.573,3.573,0,0,1,4.9,5.19L28.3,55.638a3.574,3.574,0,0,1-5.052-.144Zm11.544,7.027a3.573,3.573,0,0,1-4.9-5.2L35.9,51.646a3.574,3.574,0,0,1,4.9,5.2ZM62.166,41.56a3.563,3.563,0,0,1-5.049-.146L41.694,25.073a1.158,1.158,0,1,0-1.684,1.589L55.436,43a3.573,3.573,0,0,1-5.2,4.906L34.814,31.565a1.158,1.158,0,0,0-1.684,1.589l15.42,16.338a3.569,3.569,0,0,1-4.386,5.538,5.842,5.842,0,0,0-5.636-6.68c-1.273-.034-.81.448-.778-.825a5.885,5.885,0,0,0-5.715-6.056c-1.273-.041-.816.463-.778-.825a5.887,5.887,0,0,0-5.716-6.056c-1.281-.036-.816.473-.778-.825a5.894,5.894,0,0,0-9.926-4.452c-8.275,7.811-5.42,5.119-6.037,5.7L7.16,33.275A17.764,17.764,0,1,1,33.011,8.9l-9.479,8.951a4.8,4.8,0,0,0-1.476,3.283c-.116,4.753,6.954,7.746,11.275,3.657l8.638-8.152a1.157,1.157,0,0,1,1.636.046C45.877,19.1,60.133,34.2,62.312,36.51a3.572,3.572,0,0,1-.146,5.051Zm.2-8.368L45.289,15.1a3.472,3.472,0,0,0-4.908-.141l-8.64,8.155a4.745,4.745,0,0,1-6.721-.207,2.382,2.382,0,0,1,.1-3.371L37.16,8.166a17.767,17.767,0,0,1,25.2,25.026Z" transform="translate(869.962 227.391)" fill="#ff6a00" stroke="#ff6a00" stroke-width="1"/>
      <text id="We_Care_to_Help" data-name="We Care to Help" transform="translate(80 416)" fill="#ff6a00" font-size="69" font-family="Bahnschrift" font-weight="300" letter-spacing="0.741em" opacity="0.7"><tspan x="0" y="0">We Care to Help</tspan></text>
    </g>
  </g>
</svg>
